<mxfile host="app.diagrams.net" modified="2021-04-20T21:00:20.151Z" agent="5.0 (Windows NT 10.0; Win64; x64) AppleWebKit/537.36 (KHTML, like Gecko) Chrome/89.0.4389.128 Safari/537.36" etag="H3jxTvg0YpR58a-2BdDZ" version="14.6.3" type="github">
  <diagram id="wtnsx2LhWrcIvXkvBNgj" name="Page-1">
    <mxGraphModel dx="454" dy="772" grid="1" gridSize="10" guides="1" tooltips="1" connect="1" arrows="1" fold="1" page="1" pageScale="1" pageWidth="1920" pageHeight="1200" math="0" shadow="0">
      <root>
        <mxCell id="0" />
        <mxCell id="1" parent="0" />
        <mxCell id="lUdLsJNXa83iRJiRYyei-1" value="Index Page - SPA" style="rounded=0;whiteSpace=wrap;html=1;" vertex="1" parent="1">
          <mxGeometry x="120" y="90" width="120" height="60" as="geometry" />
        </mxCell>
      </root>
    </mxGraphModel>
  </diagram>
</mxfile>
